<svg width="24" height="24" viewBox="0 0 24 24" fill="none" xmlns="http://www.w3.org/2000/svg">
<g id="Icon / doc-search-alt">
<path id="vector" fill-rule="evenodd" clip-rule="evenodd" d="M4.75 21.25V2.75H15.25V5.4C15.25 6.14558 15.8544 6.75 16.6 6.75H19.25V21.25H4.75ZM20.7489 5.69514C20.7496 5.71289 20.75 5.73069 20.75 5.74853V21.4C20.75 22.1456 20.1456 22.75 19.4 22.75H4.6C3.85441 22.75 3.25 22.1456 3.25 21.4V2.6C3.25 1.85441 3.85442 1.25 4.6 1.25H16.2515C16.2693 1.25 16.2871 1.25035 16.3049 1.25106C16.321 1.25035 16.3372 1.25 16.3536 1.25C16.6462 1.25 16.9269 1.36627 17.1339 1.57322L17.2061 1.64541L20.3546 4.79393C20.3548 4.79416 20.355 4.79439 20.3553 4.79461L20.4268 4.86612C20.6337 5.07307 20.75 5.35377 20.75 5.64645C20.75 5.66276 20.7496 5.679 20.7489 5.69514ZM11.5 10.25C10.2574 10.25 9.25 11.2574 9.25 12.5C9.25 13.7426 10.2574 14.75 11.5 14.75C12.1226 14.75 12.6849 14.4981 13.0931 14.0889C13.4998 13.6811 13.75 13.1205 13.75 12.5C13.75 11.2574 12.7426 10.25 11.5 10.25ZM7.75 12.5C7.75 10.4289 9.42893 8.75 11.5 8.75C13.5711 8.75 15.25 10.4289 15.25 12.5C15.25 13.264 15.021 13.9753 14.6286 14.568L16.0303 15.9697C16.3232 16.2626 16.3232 16.7374 16.0303 17.0303C15.7374 17.3232 15.2626 17.3232 14.9697 17.0303L13.568 15.6286C12.9753 16.021 12.264 16.25 11.5 16.25C9.42893 16.25 7.75 14.5711 7.75 12.5Z" fill="black"/>
</g>
</svg>
