<svg xmlns="http://www.w3.org/2000/svg" width="20.414" height="23.114" viewBox="0 0 20.414 23.114">
  <path id="패스_5" data-name="패스 5" d="M20,19H15m8-4H15m12,3.5V14.8a7.453,7.453,0,0,0-.327-3.162,3,3,0,0,0-1.311-1.311A7.453,7.453,0,0,0,22.2,10H15.8a7.453,7.453,0,0,0-3.162.327,3,3,0,0,0-1.311,1.311A7.453,7.453,0,0,0,11,14.8V25.2a7.453,7.453,0,0,0,.327,3.162,3,3,0,0,0,1.311,1.311A7.453,7.453,0,0,0,15.8,30h2.7m10.5.7-3-3M15.8,23H15m12,2.2a3.5,3.5,0,1,1-3.5-3.5A3.5,3.5,0,0,1,27,25.2Z" transform="translate(-10 -9)" fill="none" stroke="#fff" stroke-linecap="round" stroke-linejoin="round" stroke-width="2"/>
</svg>