<svg width="24" height="21" viewBox="0 0 24 21" fill="none" xmlns="http://www.w3.org/2000/svg">
<path d="M2.39019 17.0983L10.6151 2.89171C11.0696 2.10655 11.2969 1.71396 11.5935 1.58211C11.8521 1.4671 12.1474 1.4671 12.4061 1.58211C12.7026 1.71396 12.9299 2.10654 13.3844 2.89171L21.6093 17.0983C22.0655 17.8863 22.2936 18.2803 22.2599 18.6037C22.2305 18.8857 22.0827 19.142 21.8534 19.3088C21.5904 19.5 21.1352 19.5 20.2246 19.5H3.77487C2.86435 19.5 2.40908 19.5 2.14613 19.3088C1.91677 19.142 1.769 18.8857 1.73959 18.6037C1.70588 18.2803 1.93398 17.8863 2.39019 17.0983Z" stroke="black" stroke-width="2" stroke-linecap="round" stroke-linejoin="round"/>
</svg>
