<svg width="24" height="24" viewBox="0 0 24 24" fill="none" xmlns="http://www.w3.org/2000/svg">
<path d="M11.2068 2.7108C11.4617 2.19436 11.5892 1.93614 11.7622 1.85364C11.9127 1.78186 12.0876 1.78186 12.2382 1.85364C12.4112 1.93614 12.5387 2.19436 12.7936 2.7108L15.2121 7.61037C15.2873 7.76284 15.325 7.83907 15.38 7.89826C15.4287 7.95066 15.4871 7.99312 15.5519 8.02329C15.6252 8.05735 15.7093 8.06965 15.8775 8.09424L21.2873 8.88496C21.857 8.96823 22.1418 9.00986 22.2736 9.149C22.3883 9.27006 22.4423 9.4364 22.4204 9.60173C22.3953 9.79175 22.1891 9.9926 21.7767 10.3943L17.8636 14.2056C17.7416 14.3245 17.6806 14.3839 17.6413 14.4545C17.6064 14.5171 17.5841 14.5859 17.5755 14.657C17.5657 14.7373 17.5801 14.8212 17.6089 14.989L18.5322 20.3724C18.6296 20.9402 18.6783 21.2241 18.5868 21.3926C18.5072 21.5391 18.3656 21.642 18.2016 21.6724C18.0131 21.7073 17.7582 21.5732 17.2483 21.3051L12.412 18.7617C12.2613 18.6825 12.186 18.6429 12.1066 18.6273C12.0363 18.6135 11.9641 18.6135 11.8938 18.6273C11.8144 18.6429 11.7391 18.6825 11.5884 18.7617L6.75209 21.3051C6.24221 21.5732 5.98727 21.7073 5.79876 21.6724C5.63475 21.642 5.49323 21.5391 5.41361 21.3926C5.32211 21.2241 5.3708 20.9402 5.46818 20.3724L6.39149 14.989C6.42027 14.8212 6.43467 14.7373 6.42493 14.657C6.41631 14.5859 6.39395 14.5171 6.3591 14.4545C6.31975 14.3839 6.25876 14.3245 6.13677 14.2056L2.22369 10.3943C1.81127 9.9926 1.60505 9.79175 1.57996 9.60173C1.55813 9.4364 1.61206 9.27006 1.72675 9.149C1.85857 9.00986 2.14341 8.96823 2.71308 8.88496L8.12286 8.09424C8.2911 8.06965 8.37522 8.05735 8.44848 8.02329C8.51334 7.99312 8.57173 7.95066 8.62042 7.89826C8.67542 7.83907 8.71305 7.76284 8.7883 7.61037L11.2068 2.7108Z" fill="black"/>
</svg>
