<svg xmlns="http://www.w3.org/2000/svg" width="262.163" height="218.004" viewBox="0 0 262.163 218.004"><g transform="translate(-1038.919 -532.996)"><rect width="262.163" height="218.004" transform="translate(1038.919 532.996)" fill="#e2e6ea"/><g transform="translate(1143.59 618.928)"><path d="M46.377,4.357H6.627A3.335,3.335,0,0,0,3.314,7.714V41.286a3.335,3.335,0,0,0,3.312,3.357h39.75a3.335,3.335,0,0,0,3.313-3.357V7.714A3.335,3.335,0,0,0,46.377,4.357ZM6.627,1A6.67,6.67,0,0,0,0,7.714V41.286A6.67,6.67,0,0,0,6.627,48h39.75A6.67,6.67,0,0,0,53,41.286V7.714A6.67,6.67,0,0,0,46.377,1H6.627Z" transform="translate(-0.002 -1)" fill="#f8f9fa" fill-rule="evenodd"/><path d="M35.313,8.026a1.761,1.761,0,0,1,2.052-.335L50.8,14.71V30.932H1v-7.21l9.412-8.486a1.761,1.761,0,0,1,2.241-.224L22.116,21.4,35.313,8.03Z" transform="translate(0.599 13.516)" fill="#f8f9fa"/><path d="M7.971,14.071A5.036,5.036,0,1,0,3,9.036a5,5,0,0,0,4.969,5.036Z" transform="translate(6.935 6.071)" fill="#f8f9fa" fill-rule="evenodd"/></g></g></svg>